<?xml version="1.0" encoding="utf-8"?>
<!-- Generator: Adobe Illustrator 18.1.1, SVG Export Plug-In . SVG Version: 6.00 Build 0)  -->
<!DOCTYPE svg PUBLIC "-//W3C//DTD SVG 1.1//EN" "http://www.w3.org/Graphics/SVG/1.1/DTD/svg11.dtd">
<svg version="1.1" id="Capa_1" xmlns="http://www.w3.org/2000/svg" xmlns:xlink="http://www.w3.org/1999/xlink" x="0px" y="0px"
	 viewBox="211 -211.8 486.8 486.8" enable-background="new 211 -211.8 486.8 486.8" xml:space="preserve">
<g>
	<path fill="#CC6055" d="M472.4-193.8c-88.9,0-167.4,51.3-203.9,129.1l-25.4-52.8L211-102.1L263.8,7.5l109.6-52.8l-15.5-32.1
		l-57.1,27.5c30.8-65.3,96.8-108.4,171.6-108.4c104.7,0,189.8,85.2,189.8,189.8s-85.1,189.8-189.8,189.8
		c-61.6,0-119.7-30.1-155.2-80.5l-29.1,20.5c42.2,59.9,111.1,95.6,184.3,95.6c124.3,0,225.4-101.1,225.4-225.4
		S596.7-193.8,472.4-193.8z"/>
</g>
</svg>
